<?xml version="1.0" encoding="UTF-8"?>
<svg id="Capa_2" data-name="Capa 2" xmlns="http://www.w3.org/2000/svg" viewBox="0 0 792 612">
  <defs>
    <style>
      .cls-1 {
        fill: #73a62d;
      }

      .cls-2 {
        fill: #1f386a;
      }

      .cls-3 {
        fill: #584897;
      }

      .cls-4 {
        fill: #2f5ea9;
      }
    </style>
  </defs>
  <path class="cls-2" d="M248.71,327.37c-.84-2.31-2.14-4.27-3.92-5.87-1.78-1.6-4.09-2.87-6.91-3.8-2.83-.93-6.23-1.53-10.18-1.81,5.62-1.03,9.73-3.09,12.34-6.2s3.92-7.31,3.92-12.61c0-2.97-.39-5.54-1.16-7.71-.77-2.18-1.84-4.04-3.2-5.58-1.37-1.55-2.97-2.79-4.81-3.74-1.84-.95-3.83-1.69-5.96-2.23-2.14-.53-4.39-.9-6.74-1.09-2.35-.2-4.7-.3-7.03-.3h-58.09v81.53h59.16c3.04,0,5.99-.12,8.84-.35,2.85-.24,5.53-.67,8.04-1.28s4.81-1.44,6.88-2.49c2.08-1.05,3.86-2.42,5.34-4.1,1.49-1.68,2.64-3.69,3.48-6.02.83-2.33,1.24-5.08,1.24-8.25s-.41-5.78-1.24-8.1ZM178.98,292.81h32.46c2.21,0,4.04.21,5.46.65s2.55,1.01,3.38,1.72c.83.71,1.41,1.53,1.72,2.46.32.93.48,1.91.48,2.94s-.16,2.01-.48,2.94c-.31.93-.89,1.73-1.72,2.4-.83.67-1.96,1.21-3.38,1.6-1.42.4-3.25.6-5.46.6h-32.46v-15.31ZM226.63,337.4c-.63,1.13-1.62,2.01-2.97,2.64-1.34.63-3.08,1.05-5.22,1.25-2.13.2-4.69.29-7.65.29h-31.81v-17.26h31.81c2.96,0,5.52.1,7.65.29,2.14.2,3.88.61,5.22,1.22,1.35.61,2.34,1.48,2.97,2.61s.95,2.62.95,4.48-.32,3.35-.95,4.48Z"/>
  <path class="cls-2" d="M419.19,298.71c-2.57-5.36-6.25-9.84-11.04-13.44-4.79-3.6-10.59-6.32-17.42-8.16-6.82-1.84-14.48-2.76-22.99-2.76s-16.19.92-23.05,2.76c-6.87,1.84-12.71,4.56-17.54,8.16-4.82,3.6-8.54,8.08-11.15,13.44-2.61,5.36-3.92,11.54-3.92,18.54s1.31,13.19,3.92,18.55c2.61,5.36,6.33,9.84,11.15,13.44,4.83,3.6,10.67,6.32,17.54,8.16,6.86,1.84,14.54,2.76,23.05,2.76s16.17-.92,22.99-2.76c6.83-1.84,12.63-4.56,17.42-8.16,4.79-3.6,8.47-8.08,11.04-13.44,2.57-5.36,3.85-11.54,3.85-18.55s-1.28-13.18-3.85-18.54ZM399.34,326.36c-.97,3.03-2.69,5.75-5.16,8.16-2.48,2.42-5.85,4.37-10.12,5.88-4.27,1.5-9.71,2.25-16.32,2.25-4.43,0-8.33-.34-11.69-1.04-3.36-.69-6.27-1.64-8.72-2.84-2.46-1.21-4.51-2.62-6.17-4.25-1.67-1.62-2.99-3.37-3.98-5.25-.99-1.88-1.69-3.85-2.11-5.9-.41-2.06-.62-4.1-.62-6.12s.21-3.98.62-6.02c.42-2.04,1.12-3.99,2.11-5.87.99-1.88,2.31-3.64,3.98-5.28,1.66-1.65,3.71-3.08,6.17-4.31,2.45-1.22,5.36-2.18,8.72-2.87,3.36-.7,7.26-1.04,11.69-1.04,6.61,0,12.05.75,16.32,2.25,4.27,1.51,7.64,3.46,10.12,5.88,2.47,2.41,4.19,5.13,5.16,8.16.97,3.02,1.45,6.06,1.45,9.1s-.48,6.09-1.45,9.11Z"/>
  <path class="cls-2" d="M465.12,340.1v-63.67h-22.02v81.53h81.53v-17.86h-59.51Z"/>
  <path class="cls-2" d="M611.8,340.1v-63.67h-22.01v81.53h81.53v-17.86h-59.52Z"/>
  <path class="cls-2" d="M270.23,276v81.49h22v-81.49h-22Z"/>
  <path class="cls-2" d="M542.33,276v81.49h22.01v-81.49h-22.01Z"/>
  <g>
    <path class="cls-3" d="M119.47,290.01l-8.18-14.17c-1.08-1.86-3.06-3.01-5.22-3.01h-16.36c-2.15,0-4.14,1.15-5.22,3.01l-8.18,14.17c-1.08,1.86-1.08,4.16,0,6.02l8.18,14.17c1.08,1.86,3.06,3.01,5.22,3.01h16.36c2.15,0,4.14-1.15,5.22-3.01l8.18-14.17c1.08-1.86,1.08-4.16,0-6.02Z"/>
    <path class="cls-1" d="M133.34,314.05l-6.89-11.93c-1.48-2.57-5.18-2.6-6.7-.06l-6.97,11.62c-.73,1.21-.74,2.72-.03,3.94l7.06,12.24c1.5,2.6,5.26,2.59,6.74-.02l6.8-11.93c.68-1.2.68-2.67-.01-3.87Z"/>
    <path class="cls-1" d="M110.65,357.21l9.66-16.73c.69-1.2.69-2.68,0-3.89l-10.08-17.45c-.69-1.2-1.97-1.94-3.36-1.94l-23.67-.03c-2.99,0-4.87,3.24-3.37,5.83l19.77,34.25c.7,1.21,2,1.96,3.4,1.94l4.32-.04c1.38-.01,2.64-.75,3.33-1.94Z"/>
    <path class="cls-2" d="M79.18,308.24l-6.32-10.95c-.71-1.23-2.03-1.97-3.44-1.94l-10.26.2c-3.83.07-5.26,5.06-2.04,7.15l16.59,10.75c.63.41,1.37.63,2.13.63h0c2.99-.01,4.84-3.25,3.35-5.83Z"/>
    <path class="cls-4" d="M75.64,272.83h-13.68c-1.39,0-2.67.74-3.37,1.94l-6.88,11.91c-1.52,2.63.43,5.9,3.46,5.83l13.92-.33c1.36-.03,2.6-.77,3.28-1.95l6.64-11.58c1.49-2.59-.39-5.82-3.37-5.82Z"/>
    <path class="cls-1" d="M61.97,359.13h27.81c2.99,0,4.86-3.24,3.37-5.83l-20.99-36.36c-.3-.52-.72-.97-1.23-1.3l-22.56-14.89c-1.87-1.23-4.39-.64-5.51,1.3l-6.92,11.99c-.69,1.2-.69,2.68,0,3.89l22.67,39.26c.69,1.2,1.98,1.94,3.37,1.94Z"/>
  </g>
  <path class="cls-2" d="M720.75,342.32v15.64h-19.29s.04-.04.05-.07c.09-.12.18-.23.27-.35,1.99-2.67,3.87-5.43,5.59-8.28.58-.95,1.14-1.9,1.68-2.87l.02-.03c.58-.24,3.1-.73,3.42-.82,1.14-.32,2.29-.69,3.42-1.1.49-.18.97-.37,1.45-.57.23-.09.47-.19.7-.29.91-.39,1.81-.81,2.69-1.26Z"/>
  <path class="cls-2" d="M756.58,271.85c-.09.14-.09.51-.13.68-.14.62-.31,1.23-.51,1.84-.69,2.08-1.66,4.06-2.87,5.89-1,1.49-2.15,2.88-3.45,4.13-1.9,1.84-4.14,3.25-6.52,4.36-.5.23-1.01.46-1.51.66-.24.1-.48.19-.73.28-.14.05-.27.09-.41.14s-.28.1-.42.15c-.07.03-.15.05-.23.08-.16.05-.32.09-.48.14-.34.11-.68.22-1.02.32-.67.19-1.35.37-2.03.55-.13.03-.26.06-.39.09-.25.07-.51.14-.76.21-.84.23-1.68.46-2.51.72l-.13.04s-.03,0-.04.01c-.27.08-.52.16-.76.22h0c-.23.07-.46.12-.72.15-.14.01-.27.02-.41.04-.13.01-.27.03-.4.05-.27.05-.54.12-.82.18-.22.06-.45.13-.71.21-.41.12-.83.27-1.23.42-.41.15-.8.31-1.21.48-.19.08-.39.16-.59.26-.2.08-.39.18-.58.27-.05.02-.1.04-.16.07-.34.17-.67.35-1,.52-.47.25-.97.52-1.47.82-.51.3-1.02.64-1.54.99-.02.03-.05.04-.08.06-.47.32-.94.67-1.4,1.01-.47.36-.92.74-1.38,1.13-.02.01-.05.03-.07.06-.26.22-.52.45-.77.67-.27.25-.55.51-.82.78-.26.26-.53.52-.79.79-.36.37-.71.75-1.06,1.15-.32.35-.64.72-.95,1.09-.54.67-1.07,1.36-1.6,2.09-.38.55-.76,1.1-1.13,1.68-.03.03-.05.05-.07.09-.3.48-.6.96-.9,1.45-.03.08-.08.14-.12.21-4.15,7.16-6.31,15.4-6.05,23.68.09,2.69.41,5.3,1.21,7.87.33,1.04.71,2.06,1.19,3.04.05.09.34.56.59.99-.56,1.01-1.15,2.01-1.77,3-.25.4-.51.8-.77,1.2-.37.57-.76,1.14-1.15,1.71-.45.65-.9,1.29-1.37,1.93-.53.74-1.08,1.47-1.63,2.19-.38.51-.77,1.01-1.16,1.5v-31.52l-39.52-48.25h24.69l24.4,30.95c1.82-3.97,4.95-8.64,10.35-13.11,1.69-1.41,3.13-3.11,4.49-4.86,2.19-2.8,7.18-7.58,16.9-9.92,1.55-.38,3.12-.63,4.7-.82,2.28-.28,8.13-1.5,11.79-6.81Z"/>
  <path class="cls-1" d="M731.67,292.37c-3.05,2.53-5.11,6.17-6.99,9.6-3.38,6.16-6.1,12.65-8.49,19.25-1.76,4.85-3.52,9.95-5.52,14.83-.67,1.63-1.36,3.23-2.08,4.79-.15.33-.3.65-.46.97-.16.32-.32.64-.48.96-.16.32-.33.64-.5.95-.17.32-.34.63-.52.94-.25-.43-.54-.9-.59-.99-.48-.98-.86-2-1.19-3.04-.8-2.57-1.12-5.18-1.21-7.87-.26-8.28,1.9-16.52,6.05-23.68.04-.07.09-.13.12-.21.3-.49.6-.97.9-1.45.02-.04.04-.06.07-.09.37-.58.75-1.13,1.13-1.68.53-.73,1.06-1.42,1.6-2.09.31-.37.63-.74.95-1.09.35-.4.7-.78,1.06-1.15.26-.27.53-.53.79-.79.27-.27.55-.53.82-.78.25-.22.51-.45.77-.67.02-.03.05-.05.07-.06.46-.39.91-.77,1.38-1.13.46-.34.93-.69,1.4-1.01.03-.02.06-.03.08-.06.52-.35,1.03-.69,1.54-.99.5-.3.99-.58,1.47-.82.33-.17.66-.35,1-.52.06-.03.11-.05.16-.07.19-.09.38-.19.58-.27.2-.1.4-.18.59-.26.41-.17.8-.33,1.21-.48.4-.15.82-.3,1.23-.42.26-.08.49-.15.71-.21.28-.06.55-.13.82-.18.13-.02.27-.04.4-.05.14-.02.27-.03.41-.04.26-.03.49-.08.72-.14Z"/>
  <path class="cls-1" d="M739.68,303.11c.27,3.13.7,6.13.51,9.31-.37,6.76-2.39,13.42-6.33,18.97-2.9,4.07-6.82,7.35-11.12,9.85-.65.38-1.32.74-1.99,1.08-.88.45-1.78.87-2.69,1.26-.23.1-.47.2-.7.29-.48.2-.96.39-1.45.57-1.13.41-2.28.78-3.42,1.1-.32.09-2.84.58-3.42.82.26-.48.52-.96.77-1.44,1.82-3.44,3.42-6.99,4.74-10.65.5-1.38.96-2.78,1.4-4.19.43-1.41.85-2.82,1.25-4.23.82-2.83,1.6-5.66,2.47-8.47.21-.67.43-1.34.65-2.01,1.58-4.67,3.57-9.19,5.89-13.55.4-.73.78-1.44,1.15-2.09,2.64-4.62,4.68-7.12,5.09-7.6l.13-.04c.83-.26,1.67-.49,2.51-.72.38-.1.77-.2,1.15-.3.68-.18,1.36-.36,2.03-.55.5-.15,1-.3,1.5-.46.08-.03.16-.05.23-.08.28-.09.56-.19.83-.29.25-.09.49-.18.73-.28.5-.2,1.01-.43,1.51-.66-.97,1.23-4.15,5.93-3.42,14.36Z"/>
</svg>