<?xml version="1.0" encoding="UTF-8"?>
<svg id="Capa_1" data-name="Capa 1" xmlns="http://www.w3.org/2000/svg" viewBox="0 0 792 612">
  <defs>
    <style>
      .cls-1 {
        fill: #1f386a;
      }

      .cls-2 {
        fill: #618d2f;
      }
    </style>
  </defs>
  <g>
    <polygon class="cls-1" points="85.16 351.71 83.77 352.53 94.02 370 115.2 369.86 125.67 351.44 114.95 333.17 93.77 333.31 83.3 351.73 83.77 352.53 85.16 351.71 86.55 352.51 95.64 336.51 113.12 336.39 121.97 351.47 113.33 366.66 95.85 366.78 86.54 350.9 85.16 351.71 86.55 352.51 85.16 351.71"/>
    <polygon class="cls-1" points="142.92 317.84 141.54 318.65 151.79 336.13 172.97 335.98 183.44 317.57 172.72 299.3 151.54 299.44 141.07 317.85 141.54 318.65 142.92 317.84 144.32 318.63 153.41 302.63 170.89 302.51 179.73 317.59 171.1 332.79 153.62 332.91 144.31 317.03 142.92 317.84 144.32 318.63 142.92 317.84"/>
    <polygon class="cls-1" points="113.81 301.3 123.59 317.97 142.92 317.84 152.48 301.04 142.7 284.36 123.37 284.49 113.81 301.3"/>
    <polygon class="cls-1" points="113.81 301.3 112.89 301.84 122.98 319.04 143.55 318.91 153.71 301.03 143.31 283.29 122.74 283.43 112.58 301.3 112.89 301.84 113.81 301.3 114.74 301.82 123.99 285.55 142.09 285.43 151.24 301.04 142.3 316.78 124.2 316.9 114.74 300.76 113.81 301.3 114.74 301.82 113.81 301.3"/>
    <polygon class="cls-1" points="142.7 284.36 141.31 285.17 151.56 302.64 172.74 302.5 183.21 284.09 172.5 265.81 151.31 265.96 140.85 284.37 141.31 285.17 142.7 284.36 144.09 285.15 153.19 269.15 170.67 269.03 179.51 284.11 170.87 299.31 153.39 299.43 144.08 283.55 142.7 284.36 144.09 285.15 142.7 284.36"/>
    <polygon class="cls-1" points="114.04 334.78 112.66 335.59 122.9 353.06 144.09 352.92 154.55 334.5 143.84 316.23 122.66 316.38 112.19 334.79 112.66 335.59 114.04 334.78 115.43 335.57 124.53 319.57 142.01 319.45 150.85 334.53 142.21 349.73 124.73 349.84 115.42 333.97 114.04 334.78 115.43 335.57 114.04 334.78"/>
    <polygon class="cls-1" points="114.26 368.26 124.04 384.94 143.37 384.81 152.93 368 143.15 351.32 123.82 351.45 114.26 368.26"/>
    <polygon class="cls-1" points="114.26 368.26 113.34 368.8 123.43 386.01 144 385.87 154.16 367.99 143.76 350.25 123.19 350.39 113.03 368.27 113.34 368.8 114.26 368.26 115.19 368.79 124.44 352.52 142.54 352.4 151.69 368.01 142.75 383.74 124.65 383.86 115.19 367.72 114.26 368.26 115.19 368.79 114.26 368.26"/>
    <polygon class="cls-1" points="142.25 251.27 152.03 267.94 171.36 267.81 180.91 251.01 171.13 234.33 151.8 234.46 142.25 251.27"/>
    <polygon class="cls-1" points="142.25 251.27 141.33 251.81 151.42 269.02 171.98 268.88 182.14 251 171.74 233.26 151.18 233.4 141.02 251.28 141.33 251.81 142.25 251.27 143.18 251.8 152.43 235.53 170.52 235.41 179.68 251.02 170.73 266.75 152.64 266.87 143.17 250.73 142.25 251.27 143.18 251.8 142.25 251.27"/>
    <polygon class="cls-1" points="171.58 267.42 181.36 284.1 200.69 283.97 210.24 267.16 200.46 250.49 181.13 250.62 171.58 267.42"/>
    <polygon class="cls-1" points="171.58 267.42 170.66 267.96 180.75 285.17 201.31 285.03 211.48 267.15 201.07 249.41 180.51 249.55 170.35 267.43 170.66 267.96 171.58 267.42 172.51 267.95 181.76 251.68 199.85 251.56 209.01 267.17 200.07 282.9 181.97 283.03 172.5 266.88 171.58 267.42 172.51 267.95 171.58 267.42"/>
    <polygon class="cls-1" points="137.7 259.28 139.08 258.47 128.83 241 107.65 241.14 97.18 259.55 107.9 277.83 129.08 277.68 139.55 259.27 139.08 258.47 137.7 259.28 136.3 258.49 127.21 274.49 109.73 274.61 100.88 259.53 109.52 244.33 127 244.21 136.31 260.09 137.7 259.28 136.3 258.49 137.7 259.28"/>
    <polygon class="cls-1" points="79.93 293.15 81.31 292.34 71.06 274.87 49.88 275.01 39.42 293.43 50.13 311.7 71.31 311.56 81.78 293.14 81.31 292.34 79.93 293.15 78.53 292.36 69.44 308.36 51.96 308.48 43.12 293.4 51.76 278.2 69.24 278.09 78.55 293.96 79.93 293.15 78.53 292.36 79.93 293.15"/>
    <polygon class="cls-1" points="109.04 309.7 99.26 293.02 79.93 293.15 70.38 309.96 80.15 326.64 99.48 326.51 109.04 309.7"/>
    <polygon class="cls-1" points="109.04 309.7 109.96 309.16 99.87 291.95 79.3 292.09 69.14 309.97 79.54 327.71 100.11 327.57 110.27 309.69 109.96 309.16 109.04 309.7 108.11 309.17 98.86 325.44 80.76 325.56 71.61 309.95 80.55 294.22 98.65 294.1 108.12 310.24 109.04 309.7 108.11 309.17 109.04 309.7"/>
    <polygon class="cls-1" points="80.15 326.64 81.54 325.82 71.29 308.35 50.11 308.49 39.64 326.91 50.36 345.18 71.54 345.04 82 326.62 81.54 325.82 80.15 326.64 78.76 325.84 69.67 341.84 52.19 341.96 43.34 326.88 51.98 311.69 69.46 311.57 78.77 327.45 80.15 326.64 78.76 325.84 80.15 326.64"/>
    <polygon class="cls-1" points="108.81 276.22 110.19 275.41 99.95 257.93 78.77 258.07 68.3 276.49 79.01 294.76 100.2 294.62 110.66 276.2 110.19 275.41 108.81 276.22 107.42 275.43 98.32 291.43 80.84 291.54 72 276.46 80.64 261.27 98.12 261.15 107.43 277.03 108.81 276.22 107.42 275.43 108.81 276.22"/>
    <polygon class="cls-1" points="108.59 242.74 98.81 226.06 79.48 226.19 69.92 243 79.7 259.67 99.03 259.54 108.59 242.74"/>
    <polygon class="cls-1" points="108.59 242.74 109.51 242.19 99.42 224.99 78.85 225.12 68.69 243 79.09 260.74 99.66 260.61 109.82 242.73 109.51 242.19 108.59 242.74 107.66 242.21 98.41 258.48 80.31 258.6 71.16 242.99 80.1 227.25 98.2 227.13 107.66 243.28 108.59 242.74 107.66 242.21 108.59 242.74"/>
    <polygon class="cls-1" points="80.6 359.73 70.82 343.05 51.49 343.18 41.94 359.99 51.72 376.66 71.05 376.53 80.6 359.73"/>
    <polygon class="cls-1" points="80.6 359.73 81.52 359.19 71.43 341.98 50.87 342.12 40.71 360 51.11 377.74 71.67 377.6 81.84 359.72 81.52 359.19 80.6 359.73 79.67 359.2 70.43 375.47 52.33 375.59 43.17 359.98 52.12 344.25 70.21 344.12 79.68 360.27 80.6 359.73 79.67 359.2 80.6 359.73"/>
    <polygon class="cls-1" points="51.27 343.57 41.49 326.9 22.16 327.03 12.61 343.83 22.39 360.51 41.72 360.38 51.27 343.57"/>
    <polygon class="cls-1" points="51.27 343.57 52.19 343.03 42.1 325.82 21.54 325.96 11.37 343.84 21.78 361.58 42.34 361.44 52.5 343.56 52.19 343.03 51.27 343.57 50.34 343.04 41.09 359.31 23 359.44 13.84 343.82 22.79 328.09 40.88 327.97 50.35 344.11 51.27 343.57 50.34 343.04 51.27 343.57"/>
  </g>
  <g>
    <g>
      <path class="cls-2" d="M247.69,278.08c-1.5,0-2.85.06-4.04.17-1.19.12-2.2.39-3.03.83-.83.44-1.47,1.09-1.91,1.96s-.66,2.05-.66,3.55v1.77h35.9v10.15h-35.9v19.03h-12.86v-32.02c0-2.45.36-4.64,1.09-6.58.73-1.94,1.95-3.58,3.66-4.9,1.71-1.33,3.97-2.34,6.79-3.05,2.82-.7,6.33-1.06,10.54-1.06h28.38v10.15h-27.97Z"/>
      <path class="cls-2" d="M286.68,315.54v-47.62h12.86v47.62h-12.86Z"/>
      <path class="cls-2" d="M341.12,278.29v37.25h-12.86v-37.25h-20.2v-10.36h53.3v10.36h-20.24Z"/>
      <path class="cls-2" d="M431.47,291.77c0,4.09-.75,7.7-2.25,10.83-1.5,3.13-3.65,5.75-6.45,7.85-2.79,2.1-6.19,3.69-10.17,4.77-3.99,1.07-8.46,1.61-13.43,1.61s-9.46-.54-13.46-1.61-7.42-2.66-10.24-4.77c-2.82-2.1-4.99-4.72-6.52-7.85-1.53-3.13-2.29-6.74-2.29-10.83s.76-7.7,2.29-10.83,3.7-5.75,6.52-7.85c2.82-2.1,6.23-3.69,10.24-4.77s8.5-1.61,13.46-1.61,9.44.54,13.43,1.61c3.99,1.07,7.38,2.66,10.17,4.77,2.8,2.1,4.94,4.72,6.45,7.85,1.5,3.13,2.25,6.74,2.25,10.83ZM418.47,291.77c0-1.78-.28-3.55-.85-5.32-.57-1.77-1.57-3.36-3.01-4.77-1.44-1.41-3.41-2.55-5.91-3.43-2.5-.88-5.67-1.32-9.53-1.32-2.59,0-4.86.2-6.83.61-1.96.4-3.66.96-5.09,1.68s-2.63,1.55-3.6,2.51c-.97.96-1.75,1.99-2.32,3.08-.58,1.1-.99,2.24-1.23,3.43-.24,1.19-.36,2.36-.36,3.52s.12,2.37.36,3.57.65,2.35,1.23,3.45c.58,1.1,1.35,2.12,2.32,3.07.97.95,2.17,1.77,3.6,2.48s3.13,1.26,5.09,1.66c1.96.4,4.24.61,6.83.61,3.86,0,7.03-.44,9.53-1.32,2.49-.88,4.46-2.02,5.91-3.43,1.44-1.41,2.45-3,3.01-4.77.57-1.77.85-3.54.85-5.32Z"/>
    </g>
    <g>
      <path class="cls-1" d="M275.83,384.34c-1.69.55-3.43,1.03-5.23,1.44-1.8.4-3.7.71-5.7.92-2,.21-4.14.31-6.43.31-4.85,0-9.32-.52-13.39-1.56-4.08-1.04-7.59-2.6-10.54-4.7-2.94-2.09-5.24-4.7-6.88-7.83-1.64-3.13-2.46-6.79-2.46-10.97s.82-7.84,2.46-10.97,3.93-5.74,6.88-7.83c2.95-2.09,6.46-3.66,10.54-4.7,4.08-1.04,8.54-1.56,13.39-1.56,2.29,0,4.43.1,6.43.31,2,.21,3.9.51,5.7.92,1.8.4,3.55.88,5.23,1.44,1.69.55,3.36,1.18,5.02,1.87v11.57c-1.32-.72-2.7-1.43-4.16-2.13-1.46-.7-3.06-1.34-4.82-1.91s-3.69-1.03-5.79-1.39c-2.1-.36-4.47-.54-7.1-.54-4.04,0-7.4.42-10.07,1.25-2.67.83-4.8,1.94-6.39,3.33-1.59,1.39-2.71,2.97-3.36,4.77-.65,1.79-.97,3.64-.97,5.56,0,1.27.14,2.52.42,3.76.28,1.24.74,2.4,1.39,3.5.65,1.1,1.49,2.11,2.53,3.03,1.04.92,2.33,1.72,3.88,2.39,1.55.67,3.36,1.2,5.42,1.58,2.07.38,4.45.57,7.16.57s5-.17,7.1-.5c2.1-.34,4.03-.78,5.79-1.33s3.36-1.18,4.82-1.89c1.46-.7,2.84-1.43,4.16-2.17v11.57c-1.66.69-3.34,1.32-5.02,1.87Z"/>
      <path class="cls-1" d="M354.47,361.96c0,4.09-.75,7.7-2.25,10.83-1.5,3.13-3.65,5.75-6.45,7.85-2.79,2.1-6.18,3.69-10.17,4.77s-8.46,1.61-13.43,1.61-9.46-.54-13.47-1.61-7.42-2.66-10.24-4.77c-2.82-2.1-4.99-4.72-6.52-7.85-1.53-3.13-2.29-6.74-2.29-10.83s.76-7.7,2.29-10.83c1.52-3.13,3.7-5.75,6.52-7.85,2.82-2.1,6.23-3.69,10.24-4.77s8.5-1.61,13.47-1.61,9.44.54,13.43,1.61,7.38,2.66,10.17,4.77c2.8,2.1,4.95,4.72,6.45,7.85,1.5,3.13,2.25,6.74,2.25,10.83ZM341.47,361.96c0-1.78-.28-3.55-.85-5.32-.57-1.77-1.57-3.36-3.01-4.77-1.44-1.41-3.41-2.55-5.91-3.43-2.5-.88-5.67-1.32-9.53-1.32-2.59,0-4.87.2-6.83.61-1.96.4-3.66.96-5.09,1.68s-2.63,1.55-3.61,2.51c-.97.96-1.74,1.99-2.32,3.08-.58,1.1-.99,2.24-1.23,3.43-.24,1.19-.37,2.36-.37,3.52s.12,2.37.37,3.57.65,2.35,1.23,3.45c.58,1.1,1.35,2.12,2.32,3.07.97.95,2.17,1.77,3.61,2.48s3.13,1.26,5.09,1.66c1.96.4,4.24.61,6.83.61,3.86,0,7.03-.44,9.53-1.32,2.5-.88,4.47-2.02,5.91-3.43,1.44-1.41,2.45-3,3.01-4.77.57-1.77.85-3.54.85-5.32Z"/>
      <path class="cls-1" d="M379.04,365.35c0,1.99.19,3.61.55,4.87.37,1.26.97,2.26,1.8,3,.83.74,1.91,1.25,3.24,1.53,1.33.28,2.96.42,4.9.42h24.4v10.57h-27.03c-3.75,0-6.93-.31-9.55-.92-2.62-.61-4.77-1.56-6.43-2.84-1.66-1.28-2.87-2.9-3.62-4.87-.75-1.96-1.13-4.3-1.13-7v-31.99h12.86v27.24Z"/>
      <path class="cls-1" d="M437.08,338.11v5.23c1.13-.72,2.36-1.46,3.69-2.22,1.33-.76,2.77-1.46,4.33-2.08,1.56-.62,3.23-1.14,5.02-1.54,1.79-.4,3.73-.61,5.81-.61s3.81.21,5.33.64c1.53.43,2.85.98,3.97,1.66,1.12.68,2.07,1.44,2.86,2.29s1.47,1.68,2.04,2.51c1.64-1.06,3.26-2.03,4.85-2.91,1.6-.88,3.2-1.63,4.82-2.25,1.62-.62,3.27-1.1,4.96-1.44,1.68-.33,3.44-.5,5.27-.5,2.91,0,5.52.4,7.81,1.21,2.3.81,4.25,1.92,5.84,3.33,1.6,1.41,2.81,3.07,3.66,4.97.84,1.91,1.26,3.94,1.26,6.12v33.2h-12.86v-31.36c0-1.27-.2-2.37-.59-3.29-.39-.92-.92-1.67-1.58-2.25-.66-.58-1.44-1-2.32-1.28s-1.83-.42-2.82-.42c-4.62,0-9.89,2.08-15.8,6.24.07.39.12.85.16,1.39s.05,1.06.05,1.59v29.39h-12.86v-31.64c0-1.27-.2-2.35-.59-3.24-.39-.89-.93-1.61-1.61-2.17-.68-.55-1.47-.95-2.36-1.2-.89-.24-1.83-.36-2.82-.36-1.2,0-2.47.17-3.79.52-1.33.35-2.67.83-4.02,1.46-1.35.62-2.68,1.36-3.98,2.22-1.31.86-2.55,1.78-3.73,2.77v31.64h-12.86v-47.62h12.86Z"/>
      <path class="cls-1" d="M576.4,383.37c-3.91,1.29-7.8,2.22-11.7,2.79s-7.87.85-11.94.85c-5.2,0-9.82-.56-13.88-1.68-4.05-1.12-7.47-2.74-10.24-4.87-2.77-2.12-4.89-4.72-6.34-7.8s-2.18-6.55-2.18-10.43c0-3.6.73-6.95,2.2-10.03,1.47-3.08,3.55-5.76,6.24-8.04,2.69-2.28,5.94-4.05,9.75-5.34,3.81-1.28,8.07-1.92,12.75-1.92,4.32,0,8.28.58,11.87,1.75,3.59,1.17,6.68,2.89,9.25,5.18s4.57,5.11,6,8.46,2.13,7.21,2.13,11.57v3.19h-46.92c.42,1.5,1.1,2.88,2.06,4.12.96,1.25,2.26,2.31,3.9,3.19,1.64.88,3.66,1.56,6.05,2.04,2.39.49,5.25.73,8.58.73,2.36,0,4.67-.14,6.93-.43,2.26-.29,4.38-.67,6.34-1.14,1.96-.47,3.74-1,5.32-1.58,1.58-.58,2.86-1.16,3.83-1.73v11.12ZM567.53,357.63c-.12-1.18-.47-2.4-1.06-3.66-.59-1.26-1.52-2.4-2.79-3.41-1.27-1.02-2.93-1.85-4.99-2.51-2.06-.66-4.62-.99-7.69-.99-2.89,0-5.38.36-7.48,1.07-2.1.72-3.87,1.61-5.29,2.67-1.42,1.06-2.52,2.21-3.31,3.43-.79,1.23-1.3,2.36-1.53,3.4h34.14Z"/>
      <path class="cls-1" d="M637.36,385.73v-26.68c0-1.78-.15-3.39-.45-4.83s-.86-2.68-1.68-3.71c-.82-1.03-1.96-1.82-3.43-2.39-1.47-.57-3.36-.85-5.67-.85-1.76,0-3.6.24-5.53.71-1.93.47-3.84,1.1-5.74,1.89-1.9.79-3.71,1.7-5.42,2.74-1.72,1.04-3.25,2.13-4.59,3.26v29.87h-12.86v-47.62h12.86v6.52c1.62-.92,3.34-1.84,5.17-2.76,1.82-.91,3.77-1.74,5.82-2.48,2.06-.74,4.24-1.34,6.55-1.8,2.31-.46,4.75-.69,7.31-.69,3.21,0,6.08.39,8.61,1.16s4.67,1.87,6.43,3.29,3.1,3.14,4.04,5.16c.94,2.02,1.4,4.28,1.4,6.78v32.44h-12.82Z"/>
      <path class="cls-1" d="M705.25,385.73v-4.68c-1.64.9-3.4,1.7-5.29,2.39s-3.84,1.28-5.87,1.77c-2.04.49-4.13.85-6.29,1.09-2.16.24-4.34.36-6.53.36-2.56,0-5.04-.24-7.43-.73-2.39-.49-4.51-1.27-6.36-2.36-1.85-1.09-3.33-2.51-4.45-4.26-1.12-1.76-1.68-3.9-1.68-6.45,0-3.21.88-5.89,2.64-8.02,1.76-2.14,4.44-3.89,8.04-5.25,3.61-1.36,8.16-2.41,13.67-3.15,5.51-.74,12.03-1.32,19.56-1.73v-1c0-.79-.21-1.56-.63-2.34-.41-.77-1.17-1.46-2.27-2.04-1.1-.59-2.6-1.07-4.51-1.44-1.91-.37-4.34-.55-7.3-.55-2.33,0-4.64.12-6.91.36-2.28.24-4.47.57-6.58.99-2.12.42-4.12.9-6.01,1.46-1.9.55-3.62,1.13-5.17,1.73v-11.44c1.62-.42,3.43-.82,5.44-1.21s4.1-.73,6.27-1.02c2.17-.29,4.37-.52,6.58-.69,2.22-.17,4.34-.26,6.38-.26,4,0,7.68.33,11.06.99s6.28,1.68,8.71,3.07c2.44,1.39,4.35,3.14,5.72,5.27,1.37,2.13,2.06,4.66,2.06,7.59v31.57h-12.86ZM705.25,364c-4.95.19-9.15.45-12.6.8-3.46.35-6.33.75-8.61,1.21-2.29.46-4.08.96-5.39,1.49-1.3.53-2.28,1.07-2.93,1.63-.65.55-1.05,1.11-1.2,1.66-.15.55-.23,1.06-.23,1.53,0,.55.15,1.09.45,1.61.3.52.83.98,1.58,1.37.75.39,1.75.7,3,.94,1.25.23,2.82.35,4.71.35,2.1,0,4.16-.16,6.17-.49,2.01-.32,3.92-.77,5.72-1.33,1.8-.57,3.49-1.24,5.08-2.01,1.58-.77,3-1.6,4.25-2.48v-6.27Z"/>
      <path class="cls-1" d="M776.67,351.53c-.9-.44-2.09-.94-3.57-1.49-1.48-.55-3.15-1.08-5.02-1.58-1.87-.5-3.91-.91-6.1-1.25-2.19-.33-4.45-.5-6.76-.5-1.85,0-3.43.06-4.73.17-1.3.12-2.4.27-3.29.45-.89.19-1.6.4-2.12.64-.52.24-.92.49-1.2.75-.28.25-.46.51-.54.76s-.12.48-.12.69c0,.69.35,1.3,1.04,1.82.69.52,1.64.98,2.84,1.39,1.2.4,2.6.79,4.19,1.14,1.6.36,3.29.73,5.08,1.11,1.79.38,3.64.8,5.54,1.25,1.91.45,3.75.98,5.55,1.58,1.79.6,3.48,1.3,5.07,2.1,1.6.8,2.99,1.73,4.19,2.79,1.2,1.06,2.15,2.29,2.84,3.67.69,1.39,1.04,2.97,1.04,4.75,0,2.29-.41,4.25-1.21,5.89-.81,1.64-1.89,3.03-3.24,4.16-1.35,1.13-2.92,2.04-4.69,2.72-1.78.68-3.65,1.21-5.6,1.58s-3.93.61-5.93.73c-2,.12-3.9.17-5.7.17-4.71,0-9.07-.39-13.08-1.16-4.01-.77-7.55-1.74-10.62-2.89v-11.37c3.16,1.76,6.78,3.13,10.83,4.12s8.39,1.49,13.01,1.49c2.72,0,4.95-.14,6.67-.43,1.72-.29,3.07-.66,4.04-1.11.97-.45,1.63-.94,1.98-1.47.35-.53.52-1.04.52-1.52,0-.76-.35-1.43-1.04-1.99-.69-.57-1.64-1.06-2.84-1.49-1.2-.43-2.6-.82-4.19-1.18-1.6-.36-3.29-.72-5.08-1.07-1.79-.36-3.63-.74-5.53-1.16-1.9-.42-3.74-.91-5.53-1.47-1.79-.57-3.48-1.22-5.08-1.97-1.59-.75-2.99-1.64-4.19-2.67-1.2-1.03-2.15-2.22-2.84-3.57-.69-1.35-1.04-2.92-1.04-4.7,0-2.1.37-3.92,1.11-5.44.74-1.52,1.74-2.82,3-3.9,1.26-1.07,2.71-1.95,4.37-2.62,1.65-.67,3.39-1.19,5.21-1.56s3.67-.62,5.55-.76c1.87-.14,3.65-.21,5.33-.21,1.85,0,3.75.09,5.7.28,1.95.19,3.88.45,5.77.78,1.9.34,3.73.72,5.5,1.16,1.77.44,3.4.9,4.9,1.39v11.02Z"/>
    </g>
  </g>
</svg>