<?xml version="1.0" encoding="UTF-8"?>
<svg id="Capa_2" data-name="Capa 2" xmlns="http://www.w3.org/2000/svg" viewBox="0 0 792 612">
  <defs>
    <style>
      .cls-1 {
        fill: #73a62d;
      }

      .cls-2 {
        fill: #1f386a;
      }

      .cls-3 {
        fill: #584897;
      }

      .cls-4 {
        fill: #2f5ea9;
      }
    </style>
  </defs>
  <path class="cls-3" d="M512.25,219.23l-27.31-47.3c-3.59-6.22-10.23-10.05-17.41-10.05h-54.62c-7.18,0-13.82,3.83-17.41,10.05l-27.31,47.3c-3.59,6.22-3.59,13.88,0,20.1l27.31,47.3c3.59,6.22,10.23,10.05,17.41,10.05h54.62c7.18,0,13.82-3.83,17.41-10.05l27.31-47.3c3.59-6.22,3.59-13.88,0-20.1Z"/>
  <path class="cls-1" d="M558.56,299.45l-22.99-39.82c-4.95-8.57-17.27-8.67-22.36-.19l-23.27,38.8c-2.42,4.04-2.47,9.08-.11,13.16l23.58,40.84c5.01,8.68,17.55,8.64,22.51-.06l22.68-39.81c2.28-4,2.27-8.92-.04-12.91Z"/>
  <path class="cls-1" d="M482.84,443.5l32.23-55.82c2.32-4.01,2.32-8.96,0-12.97l-33.63-58.25c-2.31-4.01-6.59-6.48-11.22-6.49l-79.01-.1c-9.99-.01-16.25,10.81-11.25,19.46l66,114.31c2.34,4.05,6.68,6.53,11.36,6.49l14.42-.14c4.59-.04,8.82-2.51,11.11-6.49Z"/>
  <path class="cls-2" d="M377.8,280.05l-21.1-36.55c-2.36-4.09-6.76-6.58-11.49-6.48l-34.26.66c-12.79.25-17.54,16.9-6.81,23.86l55.36,35.89c2.12,1.37,4.59,2.1,7.11,2.09h0c9.96-.04,16.17-10.83,11.18-19.46Z"/>
  <path class="cls-4" d="M365.99,161.88h-45.65c-4.64,0-8.92,2.47-11.24,6.49l-22.95,39.76c-5.06,8.77,1.42,19.7,11.55,19.46l46.46-1.12c4.54-.11,8.69-2.58,10.94-6.52l22.15-38.64c4.96-8.65-1.29-19.43-11.26-19.43Z"/>
  <path class="cls-1" d="M320.33,449.91h92.82c9.99,0,16.23-10.81,11.24-19.46l-70.07-121.37c-1.01-1.75-2.41-3.23-4.09-4.34l-75.3-49.69c-6.23-4.11-14.65-2.13-18.38,4.34l-23.11,40.02c-2.32,4.01-2.32,8.96,0,12.97l75.66,131.04c2.32,4.01,6.6,6.49,11.24,6.49Z"/>
</svg>