<?xml version="1.0" encoding="UTF-8"?>
<svg id="Capa_2" data-name="Capa 2" xmlns="http://www.w3.org/2000/svg" viewBox="0 0 792 612">
  <defs>
    <style>
      .cls-1 {
        fill: #73a62d;
      }

      .cls-2 {
        fill: #1f386a;
      }

      .cls-3 {
        fill: #584897;
      }

      .cls-4 {
        fill: #2f5ea9;
      }
    </style>
  </defs>
  <g>
    <path class="cls-3" d="M516.96,129.65l-27.31-47.3c-3.59-6.22-10.23-10.05-17.41-10.05h-54.62c-7.18,0-13.82,3.83-17.41,10.05l-27.31,47.3c-3.59,6.22-3.59,13.88,0,20.1l27.31,47.3c3.59,6.22,10.23,10.05,17.41,10.05h54.62c7.18,0,13.82-3.83,17.41-10.05l27.31-47.3c3.59-6.22,3.59-13.88,0-20.1Z"/>
    <path class="cls-1" d="M563.27,209.87l-22.99-39.82c-4.95-8.57-17.27-8.67-22.36-.19l-23.27,38.8c-2.42,4.04-2.47,9.08-.11,13.16l23.58,40.84c5.01,8.68,17.55,8.64,22.51-.06l22.68-39.81c2.28-4,2.27-8.92-.04-12.91Z"/>
    <path class="cls-1" d="M487.55,353.91l32.23-55.82c2.32-4.01,2.32-8.96,0-12.97l-33.63-58.25c-2.31-4.01-6.59-6.48-11.22-6.49l-79.01-.1c-9.99-.01-16.25,10.81-11.25,19.46l66,114.31c2.34,4.05,6.68,6.53,11.36,6.49l14.42-.14c4.59-.04,8.82-2.51,11.11-6.49Z"/>
    <path class="cls-2" d="M382.51,190.47l-21.1-36.55c-2.36-4.09-6.76-6.58-11.49-6.48l-34.26.66c-12.79.25-17.54,16.9-6.81,23.86l55.36,35.89c2.12,1.37,4.59,2.1,7.11,2.09h0c9.96-.04,16.17-10.83,11.18-19.46Z"/>
    <path class="cls-4" d="M370.7,72.3h-45.65c-4.64,0-8.92,2.47-11.24,6.49l-22.95,39.76c-5.06,8.77,1.42,19.7,11.55,19.46l46.46-1.12c4.54-.11,8.69-2.58,10.94-6.52l22.15-38.64c4.96-8.65-1.29-19.43-11.26-19.43Z"/>
    <path class="cls-1" d="M325.04,360.33h92.82c9.99,0,16.23-10.81,11.24-19.46l-70.07-121.37c-1.01-1.75-2.41-3.23-4.09-4.34l-75.3-49.69c-6.23-4.11-14.65-2.13-18.38,4.34l-23.11,40.02c-2.32,4.01-2.32,8.96,0,12.97l75.66,131.04c2.32,4.01,6.6,6.49,11.24,6.49Z"/>
  </g>
  <g>
    <path class="cls-2" d="M231.88,468.65c-.67-1.88-1.73-3.46-3.17-4.76-1.45-1.3-3.32-2.33-5.61-3.09-2.3-.75-5.05-1.24-8.26-1.46,4.56-.84,7.89-2.52,10.01-5.04,2.12-2.52,3.18-5.93,3.18-10.23,0-2.41-.31-4.49-.94-6.26-.62-1.76-1.49-3.27-2.6-4.52-1.11-1.25-2.41-2.27-3.9-3.04s-3.1-1.37-4.84-1.8c-1.73-.43-3.55-.73-5.46-.89-1.91-.16-3.81-.24-5.71-.24h-47.14v66.15h48.01c2.47,0,4.86-.09,7.17-.29,2.31-.19,4.49-.53,6.53-1.03,2.04-.5,3.9-1.17,5.58-2.02,1.69-.85,3.13-1.96,4.34-3.33,1.2-1.36,2.14-2.99,2.81-4.88.68-1.9,1.01-4.13,1.01-6.7s-.33-4.69-1.01-6.57ZM175.31,440.61h26.34c1.79,0,3.27.17,4.43.53,1.15.35,2.07.81,2.74,1.39.67.58,1.14,1.25,1.4,2,.25.75.38,1.55.38,2.38s-.13,1.63-.38,2.39c-.26.75-.73,1.4-1.4,1.95-.67.54-1.59.98-2.74,1.3-1.16.32-2.64.48-4.43.48h-26.34v-12.42ZM213.97,476.79c-.51.91-1.31,1.63-2.41,2.14-1.09.52-2.5.85-4.23,1.01-1.74.16-3.81.24-6.21.24h-25.81v-14.01h25.81c2.4,0,4.47.08,6.21.24,1.73.16,3.14.49,4.23.99,1.1.5,1.9,1.2,2.41,2.12.51.91.77,2.13.77,3.63s-.26,2.72-.77,3.64Z"/>
    <path class="cls-2" d="M370.21,445.4c-2.08-4.35-5.07-7.99-8.95-10.91-3.88-2.92-8.6-5.13-14.13-6.62-5.54-1.49-11.76-2.24-18.66-2.24s-13.14.75-18.71,2.24-10.31,3.7-14.22,6.62c-3.92,2.92-6.94,6.56-9.06,10.91-2.11,4.35-3.17,9.36-3.17,15.04s1.06,10.7,3.17,15.05c2.12,4.35,5.14,7.98,9.06,10.91,3.91,2.92,8.65,5.12,14.22,6.62,5.57,1.49,11.81,2.23,18.71,2.23s13.12-.74,18.66-2.23c5.53-1.5,10.25-3.7,14.13-6.62,3.88-2.93,6.87-6.56,8.95-10.91,2.09-4.35,3.13-9.37,3.13-15.05s-1.04-10.69-3.13-15.04ZM354.11,467.83c-.79,2.46-2.18,4.67-4.19,6.62-2.01,1.96-4.74,3.55-8.21,4.77-3.47,1.22-7.88,1.83-13.24,1.83-3.6,0-6.76-.28-9.49-.84-2.72-.56-5.08-1.33-7.07-2.31-1.99-.98-3.66-2.13-5.01-3.45-1.35-1.31-2.43-2.73-3.23-4.26-.8-1.52-1.37-3.12-1.71-4.79-.33-1.67-.5-3.32-.5-4.96s.17-3.23.5-4.88c.34-1.66.91-3.25,1.71-4.77.8-1.52,1.88-2.95,3.23-4.29,1.35-1.33,3.02-2.49,5.01-3.49,1.99-.99,4.35-1.77,7.07-2.33,2.73-.56,5.89-.84,9.49-.84,5.36,0,9.77.61,13.24,1.82,3.47,1.23,6.2,2.81,8.21,4.77,2.01,1.96,3.4,4.17,4.19,6.62.79,2.46,1.18,4.92,1.18,7.39s-.39,4.94-1.18,7.39Z"/>
    <path class="cls-2" d="M407.48,478.98v-51.66h-17.86v66.15h66.16v-14.49h-48.3Z"/>
    <path class="cls-2" d="M526.51,478.98v-51.66h-17.87v66.15h66.16v-14.49h-48.29Z"/>
    <path class="cls-2" d="M249.34,426.97v66.12h17.86v-66.12h-17.86Z"/>
    <path class="cls-2" d="M470.14,426.97v66.12h17.85v-66.12h-17.85Z"/>
    <path class="cls-2" d="M614.9,480.78v12.69h-15.65c.09-.11.17-.22.26-.34.54-.72,1.07-1.45,1.59-2.19.52-.73,1.02-1.48,1.51-2.23.99-1.51,1.92-3.06,2.8-4.63l.02-.02c.47-.2,2.51-.6,2.77-.67.93-.26,1.86-.56,2.78-.89.8-.3,1.59-.62,2.37-.98.2-.08.39-.17.59-.27.32-.15.64-.31.96-.47Z"/>
    <path class="cls-2" d="M643.98,423.6c-.08.11-.08.41-.11.55-.11.5-.25,1-.41,1.49-.56,1.69-1.35,3.3-2.33,4.78-.81,1.21-1.75,2.34-2.8,3.35-1.54,1.5-3.36,2.64-5.29,3.54-.41.19-.82.37-1.23.54-.3.12-.61.23-.92.34-.52.19-1.05.35-1.58.5-.25.08-.5.15-.75.22-1.34.37-2.69.7-4.03,1.11l-.11.03s-.02,0-.03.01c-.22.07-.42.13-.62.18h-.01c-.08.03-.17.05-.26.07-.1.02-.21.04-.32.05-.2.01-.4.04-.6.07-.24.04-.48.09-.72.15-.18.05-.37.11-.58.17-.33.1-.67.22-1,.34-.33.12-.65.25-.98.39-.34.14-.7.31-1.08.49-.27.14-.54.28-.81.42-.78.4-1.6.89-2.44,1.47-.02.02-.04.03-.07.05-.38.26-.76.54-1.13.82-.38.29-.75.6-1.12.91-.02.01-.04.03-.06.05-.21.18-.42.37-.62.55-.22.2-.45.41-.67.63-.21.21-.43.42-.64.64-.29.3-.58.61-.86.93-.26.29-.52.59-.77.89-.44.54-.87,1.1-1.3,1.69-.31.45-.62.9-.92,1.37-.02.02-.04.04-.05.07-.25.39-.49.78-.73,1.18-.03.06-.07.11-.1.17-3.37,5.81-5.12,12.49-4.91,19.21.07,2.18.33,4.3.98,6.39.27.84.58,1.67.97,2.46.04.08.27.46.48.81-.23.41-.46.82-.7,1.22-.23.4-.47.79-.72,1.18-.77,1.24-1.59,2.45-2.45,3.63-.25.36-.51.72-.78,1.07-.56.77-1.12,1.51-1.72,2.25v-25.57l-32.07-39.15h20.03l19.8,25.11c1.48-3.22,4.02-7.01,8.4-10.64,1.37-1.14,2.54-2.52,3.64-3.94,1.78-2.27,5.83-6.15,13.72-8.05,1.25-.31,2.53-.51,3.81-.67,1.85-.22,6.6-1.21,9.57-5.52Z"/>
    <path class="cls-1" d="M623.76,440.25c-.31.26-.61.52-.89.81-.29.28-.56.57-.82.87-.2.23-.39.47-.58.71-.19.24-.37.48-.55.73-.13.19-.27.38-.4.57-.43.65-.85,1.32-1.24,2-.17.28-.33.56-.49.85-.24.42-.47.84-.7,1.25-.34.63-.67,1.25-1,1.89-.66,1.26-1.28,2.54-1.87,3.83h0c-1.19,2.6-2.27,5.23-3.28,7.89-.25.67-.5,1.34-.74,2.01-1.42,3.94-2.86,8.07-4.47,12.03-.54,1.32-1.1,2.62-1.69,3.89-.24.51-.49,1.03-.74,1.54-.01.02-.02.04-.03.06-.27.5-.54,1-.82,1.5-.21-.35-.44-.73-.48-.81-.39-.79-.7-1.62-.97-2.46-.65-2.09-.91-4.21-.98-6.39-.21-6.72,1.54-13.4,4.91-19.21.03-.06.07-.11.1-.17.24-.4.48-.79.73-1.18.01-.03.03-.05.05-.07.3-.47.61-.92.92-1.37.43-.59.86-1.15,1.3-1.69.25-.3.51-.6.77-.89.28-.32.57-.63.86-.93.21-.22.43-.43.64-.64.22-.22.45-.43.67-.63.2-.18.41-.37.62-.55.02-.02.04-.04.06-.05.37-.31.74-.62,1.12-.91.37-.28.75-.56,1.13-.82.03-.02.05-.03.07-.05.84-.58,1.66-1.07,2.44-1.47.27-.14.54-.28.81-.42.38-.18.74-.35,1.08-.49.33-.14.65-.27.98-.39.33-.12.67-.24,1-.34.21-.06.4-.12.58-.17.24-.06.48-.11.72-.15.2-.03.4-.06.6-.07.11-.01.22-.03.32-.05.09-.02.18-.04.26-.06Z"/>
    <path class="cls-1" d="M630.26,448.96c.22,2.54.57,4.98.42,7.56-.3,5.48-1.94,10.89-5.14,15.39-2.35,3.3-5.53,5.96-9.02,7.99-.53.31-1.07.6-1.62.88-.32.16-.64.32-.96.47-.2.1-.39.19-.59.27-.78.36-1.57.68-2.37.98-.92.33-1.85.63-2.78.89-.26.07-2.3.47-2.77.67l-.02.02c.43-.79.86-1.59,1.27-2.4.41-.8.8-1.61,1.17-2.43.19-.41.38-.83.55-1.24.37-.83.71-1.66,1.03-2.49.16-.42.32-.85.47-1.27.2-.57.4-1.13.59-1.7.38-1.13.73-2.27,1.06-3.41.85-2.86,1.61-5.75,2.5-8.6,1.36-4.37,3.16-8.58,5.31-12.62.32-.6.63-1.17.93-1.7,2.14-3.75,3.8-5.78,4.13-6.17l.11-.03c1.34-.41,2.69-.74,4.03-1.11.25-.07.5-.14.75-.22.53-.15,1.06-.31,1.58-.5.31-.11.62-.22.92-.34.41-.17.82-.35,1.23-.54-.79,1-3.37,4.81-2.78,11.65Z"/>
  </g>
</svg>